<svg xmlns:xlink="http://www.w3.org/1999/xlink" width="10" height="6" viewBox="0 0 10 6" fill="none" xmlns="http://www.w3.org/2000/svg" class="per-page-arrow_1nl"><path d="M4.64933 5.84437C4.66473 5.86169 4.68147 5.87785 4.69943 5.8927C4.8931 6.05288 5.18467 6.03124 5.35067 5.84437L9.88881 0.735678C9.96056 0.654907 10 0.552033 10 0.445652C10 0.199525 9.79322 0 9.53814 0H0.461868C0.351617 0 0.245003 0.0380554 0.161294 0.107288C-0.032376 0.267465 -0.0548046 0.548805 0.111198 0.735678L4.64933 5.84437Z" fill="#464C5C"></path><mask id="mask023445g45g45g" mask-type="alpha" maskUnits="userSpaceOnUse" x="0" y="0" width="10" height="6" fill="none"><path d="M4.64933 5.84437C4.66473 5.86169 4.68147 5.87785 4.69943 5.8927C4.8931 6.05288 5.18467 6.03124 5.35067 5.84437L9.88881 0.735678C9.96056 0.654907 10 0.552033 10 0.445652C10 0.199525 9.79322 0 9.53814 0H0.461868C0.351617 0 0.245003 0.0380554 0.161294 0.107288C-0.032376 0.267465 -0.0548046 0.548805 0.111198 0.735678L4.64933 5.84437Z" fill="#FFFFFF"></path></mask><g mask="url(#mask023445g45g45g)" fill="none"><rect x="-7" y="-10" width="24" height="24" fill="#9199AB"></rect></g></svg>